<svg width="32" height="32" viewBox="0 0 32 32" fill="none" xmlns="http://www.w3.org/2000/svg">
  <defs>
    <radialGradient id="sky" cx="50%" cy="28%" r="95%">
      <stop offset="0%" stop-color="#1a2440" />
      <stop offset="60%" stop-color="#0b1022" />
      <stop offset="100%" stop-color="#04060d" />
    </radialGradient>
    <radialGradient id="neb1" cx="50%" cy="50%" r="50%">
      <stop offset="0%" stop-color="#9747ff" stop-opacity="0.5" />
      <stop offset="100%" stop-color="#9747ff" stop-opacity="0" />
    </radialGradient>
    <radialGradient id="neb2" cx="50%" cy="50%" r="50%">
      <stop offset="0%" stop-color="#2f6df0" stop-opacity="0.45" />
      <stop offset="100%" stop-color="#2f6df0" stop-opacity="0" />
    </radialGradient>
    <radialGradient id="star" cx="50%" cy="50%" r="50%">
      <stop offset="0%" stop-color="#ffffff" />
      <stop offset="35%" stop-color="#ffffff" stop-opacity="0.9" />
      <stop offset="100%" stop-color="#ffffff" stop-opacity="0" />
    </radialGradient>
    <clipPath id="round">
      <rect width="32" height="32" rx="7" />
    </clipPath>
  </defs>

  <g clip-path="url(#round)">
    <rect width="32" height="32" fill="url(#sky)" />
    <circle cx="9" cy="25" r="12" fill="url(#neb1)" />
    <circle cx="25" cy="8" r="11" fill="url(#neb2)" />

    <g fill="#ffffff">
      <circle cx="5" cy="6" r="0.5" opacity="0.7" />
      <circle cx="13" cy="4" r="0.35" opacity="0.5" />
      <circle cx="29" cy="11" r="0.5" opacity="0.6" />
      <circle cx="27" cy="27" r="0.45" opacity="0.55" />
      <circle cx="18" cy="29" r="0.35" opacity="0.5" />
      <circle cx="7" cy="29" r="0.4" opacity="0.5" />
      <circle cx="3" cy="14" r="0.35" opacity="0.45" />
      <circle cx="30.5" cy="20" r="0.3" opacity="0.45" />
      <circle cx="22" cy="4" r="0.3" opacity="0.4" />
    </g>

    <polyline
      points="7,9 11.7,15.7 16.4,13.8 20.6,21 25.7,13.8"
      stroke="#70e61c"
      stroke-width="0.8"
      stroke-linejoin="round"
      stroke-linecap="round"
      opacity="0.65"
    />

    <g>
      <circle cx="7" cy="9" r="3" fill="url(#star)" opacity="0.7" />
      <circle cx="11.7" cy="15.7" r="3" fill="url(#star)" opacity="0.7" />
      <circle cx="16.4" cy="13.8" r="3.2" fill="url(#star)" opacity="0.75" />
      <circle cx="20.6" cy="21" r="3.7" fill="url(#star)" opacity="0.8" />
      <circle cx="25.7" cy="13.8" r="3.2" fill="url(#star)" opacity="0.75" />
    </g>

    <g fill="#ffffff">
      <circle cx="7" cy="9" r="1" />
      <circle cx="11.7" cy="15.7" r="1" />
      <circle cx="16.4" cy="13.8" r="1.2" />
      <circle cx="20.6" cy="21" r="1.5" />
      <circle cx="25.7" cy="13.8" r="1.2" />
    </g>
  </g>
</svg>
